<svg xmlns="http://www.w3.org/2000/svg" viewBox="0 0 37 37" xml:space="preserve"><g fill="none" stroke-linejoin="round" stroke-miterlimit="10"><path stroke="#478ECF" stroke-linecap="round" d="M7.9 10.9h2.8l1.8 5.1 1.8-5.1h2.8l-2.6 7 1.9 4.9 4.4-11.9H24l-6.2 15.4h-2.6l-2.7-6.5-2.7 6.5H7.1L1 10.8h3.2l4.4 11.9 1.9-4.9-2.6-6.9z"/><path stroke="#0C0E0F" d="M34.1 14.8c-.1-.1-.3-.2-.6-.4s-.6-.3-1-.5-.8-.3-1.2-.4c-.4-.1-.9-.2-1.4-.2-.8 0-1.4.2-1.8.5-.4.3-.6.7-.6 1.3 0 .4.1.7.4 1 .3.2.6.5 1.2.6.5.2 1.2.4 1.9.6 1 .2 1.9.5 2.6.9.7.4 1.3.8 1.7 1.4.4.6.6 1.3.6 2.3 0 .8-.2 1.5-.5 2.1-.3.6-.7 1.1-1.3 1.4-.5.4-1.1.6-1.8.8-.7.2-1.4.2-2.2.2-.8 0-1.5-.1-2.3-.2-.8-.2-1.5-.4-2.2-.7s-1.4-.7-1.9-1.1l1.3-2.6c.1.1.4.3.7.5.3.2.7.4 1.2.6.5.2 1 .4 1.6.5.6.1 1.1.2 1.7.2.8 0 1.4-.1 1.8-.4.4-.3.6-.7.6-1.2s-.2-.8-.5-1.1c-.3-.3-.8-.5-1.4-.7-.6-.2-1.3-.4-2.1-.6-1-.3-1.8-.6-2.4-.9-.6-.3-1.1-.8-1.5-1.3-.3-.5-.5-1.2-.5-1.9 0-1 .2-1.9.7-2.6.5-.7 1.2-1.3 2-1.6.9-.4 1.8-.5 2.8-.5.7 0 1.4.1 2 .2l1.8.6c.6.3 1.1.5 1.5.8l-.9 2.4z"/></g><path fill="#478ECF" d="M7.9 10.9h2.8l1.8 5.1 1.8-5.1h2.8l-2.6 7 1.9 4.9 4.4-11.9H24l-6.2 15.4h-2.6l-2.7-6.5-2.7 6.5H7.1L1 10.8h3.2l4.4 11.9 1.9-4.9-2.6-6.9z"/><path fill="#0C0E0F" d="M34.1 14.8c-.1-.1-.3-.2-.6-.4s-.6-.3-1-.5-.8-.3-1.2-.4c-.4-.1-.9-.2-1.4-.2-.8 0-1.4.2-1.8.5-.4.3-.6.7-.6 1.3 0 .4.1.7.4 1 .3.2.6.5 1.2.6.5.2 1.2.4 1.9.6 1 .2 1.9.5 2.6.9.7.4 1.3.8 1.7 1.4.4.6.6 1.3.6 2.3 0 .8-.2 1.5-.5 2.1-.3.6-.7 1.1-1.3 1.4-.5.4-1.1.6-1.8.8-.7.2-1.4.2-2.2.2-.8 0-1.5-.1-2.3-.2-.8-.2-1.5-.4-2.2-.7s-1.4-.7-1.9-1.1l1.3-2.6c.1.1.4.3.7.5.3.2.7.4 1.2.6.5.2 1 .4 1.6.5.6.1 1.1.2 1.7.2.8 0 1.4-.1 1.8-.4.4-.3.6-.7.6-1.2s-.2-.8-.5-1.1c-.3-.3-.8-.5-1.4-.7-.6-.2-1.3-.4-2.1-.6-1-.3-1.8-.6-2.4-.9-.6-.3-1.1-.8-1.5-1.3-.3-.5-.5-1.2-.5-1.9 0-1 .2-1.9.7-2.6.5-.7 1.2-1.3 2-1.6.9-.4 1.8-.5 2.8-.5.7 0 1.4.1 2 .2l1.8.6c.6.3 1.1.5 1.5.8l-.9 2.4z"/></svg>